<?xml version="1.0" encoding="utf-8"?>
<!-- Generator: Adobe Illustrator 24.3.0, SVG Export Plug-In . SVG Version: 6.00 Build 0)  -->
<svg version="1.1" id="Layer_1" xmlns="http://www.w3.org/2000/svg" xmlns:xlink="http://www.w3.org/1999/xlink" x="0px" y="0px"
	 viewBox="0 0 50 50" style="enable-background:new 0 0 50 50;" xml:space="preserve">
<style type="text/css">
	.st0{stroke:#FFFFFF;stroke-width:2;stroke-miterlimit:10;}
</style>
<path class="st0" d="M43.6,6.4c-1.8-1.8-4.7-1.8-6.5,0L25,18.5L12.8,6.4c-1.8-1.8-4.7-1.8-6.5,0s-1.8,4.7,0,6.5L18.5,25L6.4,37.2
	c-1.8,1.8-1.8,4.7,0,6.5c1.8,1.8,4.7,1.8,6.5,0L25,31.5l12.2,12.2c1.8,1.8,4.7,1.8,6.5,0c1.8-1.8,1.8-4.7,0-6.5L31.5,25l12.2-12.2
	C45.5,11,45.5,8.2,43.6,6.4L43.6,6.4z"/>
</svg>
