<?xml version="1.0" encoding="utf-8"?>
<!-- Generator: Adobe Illustrator 24.3.0, SVG Export Plug-In . SVG Version: 6.00 Build 0)  -->
<svg version="1.1" id="Layer_1" xmlns="http://www.w3.org/2000/svg" xmlns:xlink="http://www.w3.org/1999/xlink" x="0px" y="0px"
	 viewBox="0 0 50 50" style="enable-background:new 0 0 50 50;" xml:space="preserve">
<style type="text/css">
	.st0{fill:#00408A;}
</style>
<g>
	<path class="st0" d="M19.7,27.8c-0.4,0-0.7,0-1.1,0c-1.5,0-3,0-4.5,0c-0.9,0-1.2-0.3-1.2-1.1c0-2.3,0-4.6,0-6.9
		c0-0.8,0.3-1.1,1.2-1.1c1.6,0,3.3,0,4.9,0c0.2,0,0.4,0,0.7,0c0-0.3,0-0.5,0-0.7c0.1-2.1-0.1-4.2,0.1-6.2c0.4-5.2,4.4-9,9.7-9.2
		c2.2-0.1,4.4-0.1,6.6-0.1c0.7,0,1.1,0.3,1.1,1.1c0,2.2,0,4.3,0,6.5c0,0.7-0.3,1-1.1,1.1c-1.5,0.1-3,0.1-4.4,0.1
		c-1.7,0-2.4,0.7-2.4,2.4c-0.1,1.6,0,3.3,0,4.9c0.2,0,0.4,0,0.6,0.1c1.9,0,3.8,0,5.7,0c1.2,0,1.5,0.3,1.5,1.5c0,2.1,0,4.3,0,6.5
		c0,1-0.2,1.3-1.3,1.3c-2,0-3.9,0-5.8,0c-0.2,0-0.4,0-0.7,0c0,0.3,0,0.5,0,0.7c0,5.7,0,11.5,0,17.2c0,1.5-0.2,1.7-1.7,1.7
		c-2.1,0-4.2,0-6.3,0c-1.2,0-1.4-0.3-1.4-1.4c0-5.8,0-11.6,0-17.4C19.7,28.4,19.7,28.2,19.7,27.8z"/>
</g>
</svg>
