<?xml version="1.0" encoding="utf-8"?>
<!-- Generator: Adobe Illustrator 24.3.0, SVG Export Plug-In . SVG Version: 6.00 Build 0)  -->
<svg version="1.1" id="Layer_1" xmlns="http://www.w3.org/2000/svg" xmlns:xlink="http://www.w3.org/1999/xlink" x="0px" y="0px"
	 viewBox="0 0 50 50" style="enable-background:new 0 0 50 50;" xml:space="preserve">
<style type="text/css">
	.st0{fill:#00408A;}
</style>
<g>
	<path class="st0" d="M31.8,47.5c-4.5,0-9,0-13.5,0c-0.3,0-0.6-0.1-0.8-0.1c-1.8-0.1-3.6-0.1-5.3-0.6c-3.7-0.9-6.5-3-8.2-6.5
		c-1-2.2-1.3-4.5-1.4-6.9C2.6,28.7,2.5,23.8,2.6,19c0-2.3,0.1-4.7,0.6-7c1-4,3.3-6.8,7.1-8.4c2.1-0.9,4.2-1.1,6.4-1.1
		c4.6-0.1,9.1-0.1,13.7-0.1c2.4,0,4.8,0,7.2,0.5c4.3,1,7.4,3.5,8.9,7.7c0.8,2.1,0.9,4.2,0.9,6.3c0,5.2,0.1,10.4,0,15.6
		c0,1.5-0.2,3-0.4,4.4c-0.5,3-1.8,5.5-4.2,7.5c-2.3,1.9-5,2.7-7.9,2.9C33.9,47.4,32.8,47.4,31.8,47.5z M25,43.5L25,43.5
		c1.2-0.1,2.4,0,3.6-0.1c2.6-0.1,5.2-0.1,7.7-0.4c3.5-0.5,5.8-2.5,6.7-5.9c0.4-1.4,0.5-2.9,0.5-4.3c0.1-4.2,0.1-8.4,0.1-12.5
		c0-2.2-0.1-4.4-0.4-6.5c-0.5-3.6-2.7-6.1-6.3-6.8c-1.6-0.3-3.2-0.4-4.8-0.5c-4.2-0.1-8.4-0.1-12.7,0c-2,0-3.9,0.1-5.9,0.4
		c-3.5,0.5-5.8,2.8-6.5,6.1c-0.3,1.5-0.4,3-0.5,4.5C6.6,21.4,6.6,25,6.6,28.7c0.1,2.5,0.1,5.1,0.4,7.6c0.3,2.6,1.5,4.7,3.8,6
		c1.4,0.8,3,1.2,4.6,1.2C18.5,43.4,21.8,43.4,25,43.5z"/>
	<path class="st0" d="M13.5,25c0-6.4,5.2-11.6,11.6-11.6c6.4,0,11.5,5.2,11.5,11.5S31.4,36.5,25,36.5C18.6,36.6,13.5,31.4,13.5,25z
		 M25,32.5c4.2,0,7.5-3.3,7.5-7.5c0-4.2-3.3-7.5-7.5-7.5s-7.5,3.4-7.5,7.5S20.9,32.5,25,32.5z"/>
	<path class="st0" d="M37.1,10.3c1.5,0.1,2.7,1.3,2.6,2.8c-0.1,1.5-1.3,2.7-2.8,2.6c-1.5,0-2.7-1.3-2.7-2.8
		C34.3,11.4,35.6,10.3,37.1,10.3z"/>
</g>
</svg>
