<?xml version="1.0" encoding="utf-8"?>
<!-- Generator: Adobe Illustrator 24.3.0, SVG Export Plug-In . SVG Version: 6.00 Build 0)  -->
<svg version="1.1" id="Layer_1" xmlns="http://www.w3.org/2000/svg" xmlns:xlink="http://www.w3.org/1999/xlink" x="0px" y="0px"
	 viewBox="0 0 50 50" style="enable-background:new 0 0 50 50;" xml:space="preserve">
<style type="text/css">
	.st0{fill:#00408A;}
</style>
<g>
	<path class="st0" d="M27.7,47.5c-3.1,0-6.2,0-9.3,0c0-10,0-20,0-30c2.9,0,5.8,0,8.9,0c0,1.3,0,2.6,0,4c0.1-0.1,0.2-0.1,0.2-0.1
		c2-3.1,4.9-4.6,8.5-4.7c2.1-0.1,4.1,0.2,6,1.1c2.5,1.2,3.8,3.2,4.6,5.7c0.6,2,0.8,4.1,0.8,6.2c0,5.7-0.1,11.5-0.1,17.3
		c0,0.1,0,0.2,0,0.3c-3.1,0-6.2,0-9.3,0c0-0.2,0-0.4,0-0.6c0-4.9,0-9.8,0-14.7c0-1.1-0.1-2.2-0.3-3.3c-0.6-3.1-2.6-4.1-5.5-3.8
		c-2.6,0.3-4,1.9-4.4,4.7c-0.2,1-0.2,2.1-0.2,3.1c0,4.7,0,9.4,0,14.1C27.7,47,27.7,47.2,27.7,47.5z"/>
	<path class="st0" d="M3.3,17.5c3.1,0,6.2,0,9.3,0c0,10,0,20,0,30c-3.1,0-6.2,0-9.3,0C3.3,37.5,3.3,27.5,3.3,17.5z"/>
	<path class="st0" d="M13.3,7.9c0,3-2.4,5.5-5.3,5.5c-3,0-5.5-2.5-5.5-5.5c0-2.9,2.4-5.4,5.3-5.4C10.8,2.4,13.3,4.9,13.3,7.9z"/>
</g>
</svg>
