<svg xmlns="http://www.w3.org/2000/svg" width="27.954" height="27.954" viewBox="0 0 27.954 27.954">
  <path id="Icon_awesome-link" data-name="Icon awesome-link" d="M17.832,10.122a8.3,8.3,0,0,1,.02,11.716l-.02.02-3.669,3.669A8.3,8.3,0,0,1,2.427,13.791l2.026-2.026a.873.873,0,0,1,1.49.579,10.061,10.061,0,0,0,.529,2.878.879.879,0,0,1-.207.907l-.715.715a3.931,3.931,0,1,0,5.524,5.595l3.669-3.668a3.93,3.93,0,0,0,0-5.56,4.09,4.09,0,0,0-.565-.468.876.876,0,0,1-.379-.688,2.175,2.175,0,0,1,.639-1.627l1.15-1.15a.877.877,0,0,1,1.124-.095,8.325,8.325,0,0,1,1.12.939Zm7.695-7.7a8.308,8.308,0,0,0-11.736,0L10.122,6.1l-.02.02a8.3,8.3,0,0,0,1.14,12.655.877.877,0,0,0,1.124-.095l1.15-1.15a2.175,2.175,0,0,0,.639-1.627.876.876,0,0,0-.379-.688,4.09,4.09,0,0,1-.565-.468,3.93,3.93,0,0,1,0-5.56l3.669-3.668A3.931,3.931,0,1,1,22.4,11.11l-.715.715a.879.879,0,0,0-.207.907,10.061,10.061,0,0,1,.529,2.878.873.873,0,0,0,1.49.579l2.026-2.026a8.308,8.308,0,0,0,0-11.736Z" transform="translate(0 0)" fill="#fff"/>
</svg>
