<svg xmlns="http://www.w3.org/2000/svg" width="27.954" height="27.954" viewBox="0 0 27.954 27.954">
  <path id="Icon_awesome-phone-alt" data-name="Icon awesome-phone-alt" d="M27.156,19.754l-6.115-2.621a1.31,1.31,0,0,0-1.529.377L16.8,20.818A20.237,20.237,0,0,1,7.13,11.144l3.309-2.708a1.307,1.307,0,0,0,.377-1.529L8.2.792a1.319,1.319,0,0,0-1.5-.759L1.016,1.344A1.31,1.31,0,0,0,0,2.621,25.331,25.331,0,0,0,25.333,27.954a1.31,1.31,0,0,0,1.278-1.016l1.31-5.678a1.326,1.326,0,0,0-.765-1.507Z" transform="translate(0 0)" fill="#fff"/>
</svg>
