<?xml version="1.0" encoding="utf-8"?>
<!-- Generator: Adobe Illustrator 24.3.0, SVG Export Plug-In . SVG Version: 6.00 Build 0)  -->
<svg version="1.1" id="Layer_1" xmlns="http://www.w3.org/2000/svg" xmlns:xlink="http://www.w3.org/1999/xlink" x="0px" y="0px"
	 viewBox="0 0 50 50" style="enable-background:new 0 0 50 50;" xml:space="preserve">
<style type="text/css">
	.st0{fill:#00408A;}
</style>
<g>
	<path class="st0" d="M37.1,16.4c-0.1,1.5-0.1,3-0.3,4.5c0,0.5,0.1,0.7,0.6,0.8c1,0.3,1.9,0,2.7-0.4c0.6-0.3,1.2-0.2,1.9,0
		c1.1,0.5,1.2,1.4,0.2,2.1c-0.7,0.5-1.5,0.7-2.3,1.1c-0.5,0.2-1.1,0.4-1.6,0.7c-1.1,0.6-1.4,1.5-0.9,2.7c0.5,1.1,1.1,2.3,1.9,3.3
		c1.8,2.4,4,4.2,7,5c0.2,0,0.5,0.1,0.7,0.1c0.4,0.1,0.6,0.4,0.4,0.8c-0.2,0.3-0.5,0.7-0.9,0.8c-1,0.4-2,0.7-3,1
		c-0.5,0.1-1.1,0.2-1.6,0.3c-0.4,0-0.7,0.3-0.8,0.7c-0.1,0.5-0.2,1.1-0.4,1.6c-0.2,0.7-0.3,0.8-1.1,0.7c-1.2-0.1-2.5-0.3-3.8-0.3
		s-2.5,0.4-3.6,1.1c-0.8,0.5-1.6,1.1-2.4,1.6c-3.4,2.1-6.8,2.1-10.2-0.1c-0.6-0.4-1.2-0.8-1.7-1.2c-1.8-1.4-3.8-1.6-6-1.4
		c-0.6,0.1-1.2,0.2-1.8,0.3c-0.7,0.1-0.9,0-1.1-0.7c-0.1-0.5-0.3-1.1-0.4-1.6c-0.1-0.4-0.3-0.6-0.8-0.6c-1.3-0.3-2.7-0.6-4-1
		c-0.4-0.1-0.9-0.5-1.2-0.8c-0.5-0.5-0.3-1,0.3-1.1c3.5-0.7,6-2.8,8-5.7c0.5-0.8,1-1.7,1.4-2.6c0.6-1.2,0.2-2.2-1-2.9
		c-0.6-0.3-1.3-0.5-2-0.8c-0.7-0.3-1.3-0.6-1.9-1C6.9,22.8,7,22,7.9,21.5c0.6-0.3,1.1-0.4,1.8-0.1c0.8,0.3,1.5,0.6,2.4,0.5
		c0.2,0,0.4-0.1,0.6-0.1c0.3-0.1,0.4-0.3,0.4-0.7C13,19,12.9,17,12.9,15c0.1-4.9,2.5-8.3,7-10c4.6-1.8,9.2-1.4,13.2,1.7
		c2.7,2.2,4,5.1,3.9,8.6C37,15.6,37,16,37.1,16.4L37.1,16.4z"/>
</g>
</svg>
