<?xml version="1.0" encoding="utf-8"?>
<!-- Generator: Adobe Illustrator 24.3.0, SVG Export Plug-In . SVG Version: 6.00 Build 0)  -->
<svg version="1.1" id="Layer_1" xmlns="http://www.w3.org/2000/svg" xmlns:xlink="http://www.w3.org/1999/xlink" x="0px" y="0px"
	 viewBox="0 0 50 50" style="enable-background:new 0 0 50 50;" xml:space="preserve">
<style type="text/css">
	.st0{fill:#00408A;}
</style>
<g>
	<path class="st0" d="M3.7,46.3c1-2.5,1.8-4.8,2.8-7.2c0.2-0.6,0.2-1.1-0.2-1.7C-1.7,25.5,3.5,9.4,16.7,4.1C29.7-1,44.3,6.8,47,20.5
		c2.5,12.1-5.4,24.1-17.5,26.5c-5.8,1.2-11.4,0.2-16.5-3c-0.3-0.2-0.6-0.2-0.9-0.1c-2.6,0.8-5.3,1.5-8,2.3C4,46.3,3.9,46.3,3.7,46.3
		z M31.8,37.7c1.2,0.1,2.2-0.3,3-1.2c0.6-0.7,1.3-1.2,1.9-1.9c1.1-1.1,1.1-2.7,0.1-3.8c-1.1-1.1-2.2-2.2-3.3-3.3
		c-1.3-1.3-3.3-0.9-4,0.8c-0.4,1.2-1.7,1.8-2.9,1.4c-0.7-0.3-1.5-0.6-2.1-1.1c-1.9-1.3-3.4-2.9-4.2-5.1c-0.5-1.4,0.1-2.5,1.5-3.1
		c1.7-0.7,2.1-2.6,0.8-3.9c-1.1-1.2-2.3-2.3-3.4-3.4c-1-1-2.5-1-3.5,0c-0.7,0.7-1.3,1.3-2,2c-1.1,1-1.4,2.2-1.2,3.5
		c0.2,1.3,0.6,2.6,1.1,3.8c2.9,6,7.5,10.5,13.3,13.8C28.5,37.1,30.1,37.6,31.8,37.7z"/>
</g>
</svg>
