<?xml version="1.0" encoding="utf-8"?>
<!-- Generator: Adobe Illustrator 24.3.0, SVG Export Plug-In . SVG Version: 6.00 Build 0)  -->
<svg version="1.1" id="Layer_1" xmlns="http://www.w3.org/2000/svg" xmlns:xlink="http://www.w3.org/1999/xlink" x="0px" y="0px"
	 viewBox="0 0 50 50" style="enable-background:new 0 0 50 50;" xml:space="preserve">
<style type="text/css">
	.st0{fill:#00408A;}
</style>
<g>
	<path class="st0" d="M25,8.9c4.6,0,9.1,0.1,13.7,0c4.6-0.1,7.8,3.1,8.5,6.5c0.2,0.7,0.3,1.5,0.3,2.3c0,4.9,0,9.8,0,14.8
		s-3.7,8.7-8.7,8.7c-9.2,0-18.4,0-27.7,0c-4.9,0-8.7-3.7-8.7-8.7s0-9.9,0-14.9c0-4.8,3.5-8.5,8.3-8.6C15.6,8.9,20.3,8.9,25,8.9
		L25,8.9z M19.1,18.1c0,4.7,0,9.2,0,13.8c3.9-2.3,7.8-4.6,11.8-6.9C26.9,22.7,23.1,20.4,19.1,18.1z"/>
</g>
</svg>
